{
  "source": "C:\\Users\\Peter\\Desktop\\stuff\\MIUN\\quantitative_research\\video_compression\\videos\\BVI-HD\\BVI-HD_CDVL_videos\\ORIG\\DiverFishAndRock_1920x1080_30fps.mp4",
  "output": "C:\\Users\\Peter\\Desktop\\stuff\\MIUN\\quantitative_research\\video_compression\\compressed_videos\\BVI-HD\\vp9\\4\\DiverFishAndRock_1920x1080_30fps_vp9.webm",
  "codec": "vp9",
  "ok": "Input #0, mov,mp4,m4a,3gp,3g2,mj2, from 'C:\\Users\\Peter\\Desktop\\stuff\\MIUN\\quantitative_research\\video_compression\\videos\\BVI-HD\\BVI-HD_CDVL_videos\\ORIG\\DiverFishAndRock_1920x1080_30fps.mp4':\n  Metadata:\n    major_brand     : isom\n    minor_version   : 512\n    compatible_brands: isomiso2avc1mp41\n    encoder         : Lavf54.28.101\n  Duration: 00:00:05.00, start: 0.000000, bitrate: 228854 kb/s\n  Stream #0:0[0x1](und): Video: h264 (High 4:4:4 Predictive) (avc1 / 0x31637661), yuv420p(progressive), 1920x1080, 228851 kb/s, 30 fps, 30 tbr, 30 tbn (default)\n    Metadata:\n      handler_name    : VideoHandler\n      vendor_id       : [0][0][0][0]\n[out#0/webm @ 000001b721d30bc0] Codec AVOption b:a (set bitrate (in bits/s)) has not been used for any stream. The most likely reason is either wrong type (e.g. a video option with no video streams) or that it is a private option of some decoder which was not actually used for any stream.\nStream mapping:\n  Stream #0:0 -> #0:0 (h264 (native) -> vp9 (libvpx-vp9))\nPress [q] to stop, [?] for help\n[libvpx-vp9 @ 000001b721d2c2c0] v1.15.2-100-g40561f514\nOutput #0, webm, to 'C:\\Users\\Peter\\Desktop\\stuff\\MIUN\\quantitative_research\\video_compression\\compressed_videos\\BVI-HD\\vp9\\4\\DiverFishAndRock_1920x1080_30fps_vp9.webm':\n  Metadata:\n    major_brand     : isom\n    minor_version   : 512\n    compatible_brands: isomiso2avc1mp41\n    encoder         : Lavf62.3.100\n  Stream #0:0(und): Video: vp9, yuv420p(tv, progressive), 1920x1080, q=2-31, 4000 kb/s, 30 fps, 1k tbn (default)\n    Metadata:\n      encoder         : Lavc62.11.100 libvpx-vp9\n      handler_name    : VideoHandler\n      vendor_id       : [0][0][0][0]\n    Side data:\n      cpb: bitrate max/min/avg: 0/0/0 buffer size: 4000000 vbv_delay: N/A\nframe=    0 fps=0.0 q=0.0 size=       0KiB time=N/A bitrate=N/A speed=N/A elapsed=0:00:00.53    \nframe=    5 fps=4.4 q=45.0 size=       1KiB time=00:00:00.16 bitrate=  30.4kbits/s speed=0.146x elapsed=0:00:01.13    \nframe=   10 fps=5.9 q=40.0 size=       1KiB time=00:00:00.33 bitrate=  15.2kbits/s speed=0.198x elapsed=0:00:01.68    \nframe=   14 fps=6.3 q=39.0 size=       1KiB time=00:00:00.46 bitrate=  10.9kbits/s speed=0.209x elapsed=0:00:02.23    \nframe=   18 fps=6.5 q=38.0 size=       1KiB time=00:00:00.60 bitrate=   8.5kbits/s speed=0.216x elapsed=0:00:02.77    \nframe=   20 fps=6.0 q=38.0 size=       1KiB time=00:00:00.66 bitrate=   7.6kbits/s speed=0.199x elapsed=0:00:03.34    \nframe=   22 fps=5.7 q=38.0 size=       1KiB time=00:00:00.73 bitrate=   6.9kbits/s speed=0.189x elapsed=0:00:03.88    \nframe=   25 fps=5.6 q=38.0 size=       1KiB time=00:00:00.83 bitrate=   6.1kbits/s speed=0.186x elapsed=0:00:04.48    \nframe=   28 fps=5.6 q=38.0 size=       1KiB time=00:00:00.93 bitrate=   5.4kbits/s speed=0.185x elapsed=0:00:05.03    \nframe=   30 fps=5.4 q=39.0 size=       1KiB time=00:00:01.00 bitrate=   5.1kbits/s speed=0.18x elapsed=0:00:05.55    \nframe=   35 fps=5.8 q=38.0 size=       1KiB time=00:00:01.16 bitrate=   4.3kbits/s speed=0.192x elapsed=0:00:06.06    \nframe=   38 fps=5.7 q=38.0 size=       1KiB time=00:00:01.26 bitrate=   4.0kbits/s speed=0.191x elapsed=0:00:06.63    \nframe=   40 fps=5.6 q=39.0 size=       1KiB time=00:00:01.33 bitrate=   3.8kbits/s speed=0.186x elapsed=0:00:07.16    \nframe=   44 fps=5.7 q=35.0 size=       1KiB time=00:00:01.46 bitrate=   3.5kbits/s speed=0.19x elapsed=0:00:07.70    \nframe=   47 fps=5.7 q=36.0 size=       1KiB time=00:00:01.56 bitrate=   3.2kbits/s speed=0.19x elapsed=0:00:08.24    \nframe=   50 fps=5.7 q=36.0 size=       1KiB time=00:00:01.66 bitrate=   3.0kbits/s speed=0.189x elapsed=0:00:08.83    \nframe=   52 fps=5.5 q=36.0 size=       1KiB time=00:00:01.73 bitrate=   2.9kbits/s speed=0.183x elapsed=0:00:09.44    \nframe=   55 fps=5.5 q=35.0 size=       1KiB time=00:00:01.83 bitrate=   2.8kbits/s speed=0.184x elapsed=0:00:09.98    \nframe=   59 fps=5.6 q=35.0 size=       1KiB time=00:00:01.93 bitrate=   2.6kbits/s speed=0.183x elapsed=0:00:10.54    \nframe=   62 fps=5.6 q=36.0 size=       1KiB time=00:00:02.06 bitrate=   2.5kbits/s speed=0.186x elapsed=0:00:11.09    \nframe=   66 fps=5.7 q=35.0 size=       1KiB time=00:00:02.16 bitrate=   2.3kbits/s speed=0.187x elapsed=0:00:11.61    \nframe=   68 fps=5.6 q=35.0 size=       1KiB time=00:00:02.26 bitrate=   2.2kbits/s speed=0.186x elapsed=0:00:12.16    \nframe=   70 fps=5.5 q=35.0 size=       1KiB time=00:00:02.33 bitrate=   2.2kbits/s speed=0.183x elapsed=0:00:12.74    \nframe=   74 fps=5.6 q=34.0 size=       1KiB time=00:00:02.43 bitrate=   2.1kbits/s speed=0.183x elapsed=0:00:13.32    \nframe=   77 fps=5.6 q=35.0 size=       1KiB time=00:00:02.56 bitrate=   2.0kbits/s speed=0.185x elapsed=0:00:13.86    \nframe=   80 fps=5.6 q=35.0 size=       1KiB time=00:00:02.66 bitrate=   1.9kbits/s speed=0.185x elapsed=0:00:14.39    \nframe=   85 fps=5.7 q=37.0 size=       1KiB time=00:00:02.83 bitrate=   1.8kbits/s speed=0.189x elapsed=0:00:14.95    \nframe=   88 fps=5.7 q=37.0 size=       1KiB time=00:00:02.93 bitrate=   1.7kbits/s speed=0.189x elapsed=0:00:15.52    \nframe=   90 fps=5.6 q=37.0 size=       1KiB time=00:00:03.00 bitrate=   1.7kbits/s speed=0.187x elapsed=0:00:16.07    \nframe=   94 fps=5.6 q=36.0 size=       1KiB time=00:00:03.13 bitrate=   1.6kbits/s speed=0.188x elapsed=0:00:16.64    \nframe=   98 fps=5.7 q=37.0 size=       1KiB time=00:00:03.26 bitrate=   1.6kbits/s speed=0.19x elapsed=0:00:17.22    \nframe=  102 fps=5.7 q=38.0 size=       1KiB time=00:00:03.36 bitrate=   1.5kbits/s speed=0.189x elapsed=0:00:17.77    \nframe=  105 fps=5.7 q=38.0 size=       1KiB time=00:00:03.50 bitrate=   1.4kbits/s speed=0.191x elapsed=0:00:18.30    \nframe=  109 fps=5.8 q=39.0 size=       1KiB time=00:00:03.60 bitrate=   1.4kbits/s speed=0.191x elapsed=0:00:18.81    \nframe=  111 fps=5.7 q=23.0 size=       1KiB time=00:00:03.70 bitrate=   1.4kbits/s speed=0.191x elapsed=0:00:19.38    \nframe=  114 fps=5.7 q=37.0 size=       1KiB time=00:00:03.80 bitrate=   1.3kbits/s speed=0.19x elapsed=0:00:19.97    \nframe=  118 fps=5.7 q=38.0 size=       1KiB time=00:00:03.93 bitrate=   1.3kbits/s speed=0.191x elapsed=0:00:20.55    \nframe=  121 fps=5.7 q=24.0 size=       1KiB time=00:00:04.03 bitrate=   1.3kbits/s speed=0.191x elapsed=0:00:21.10    \nframe=  125 fps=5.8 q=35.0 size=       1KiB time=00:00:04.16 bitrate=   1.2kbits/s speed=0.193x elapsed=0:00:21.64    \nframe=  126 fps=5.7 q=35.0 size=       1KiB time=00:00:04.20 bitrate=   1.2kbits/s speed=0.189x elapsed=0:00:22.18    \nframe=  126 fps=5.5 q=35.0 size=       1KiB time=00:00:04.20 bitrate=   1.2kbits/s speed=0.185x elapsed=0:00:22.72    \nframe=  126 fps=5.4 q=35.0 size=       1KiB time=00:00:04.20 bitrate=   1.2kbits/s speed=0.18x elapsed=0:00:23.28    \nframe=  126 fps=5.3 q=35.0 size=       1KiB time=00:00:04.20 bitrate=   1.2kbits/s speed=0.176x elapsed=0:00:23.84    \nframe=  126 fps=5.2 q=35.0 size=       1KiB time=00:00:04.20 bitrate=   1.2kbits/s speed=0.172x elapsed=0:00:24.38    \nframe=  126 fps=5.1 q=35.0 size=       1KiB time=00:00:04.20 bitrate=   1.2kbits/s speed=0.168x elapsed=0:00:24.93    \nframe=  126 fps=4.9 q=35.0 size=       1KiB time=00:00:04.20 bitrate=   1.2kbits/s speed=0.165x elapsed=0:00:25.46    \n[out#0/webm @ 000001b721d30bc0] video:2205KiB audio:0KiB subtitle:0KiB other streams:0KiB global headers:0KiB muxing overhead: 0.078088%\nframe=  150 fps=5.8 q=31.0 Lsize=    2207KiB time=00:00:05.00 bitrate=3615.2kbits/s speed=0.195x elapsed=0:00:25.68    \n",
  "seconds": 26.08652687072754,
  "probe_out": {}
}